<?xml version="1.0" standalone="no"?>
<!DOCTYPE svg PUBLIC "-//W3C//DTD SVG 20010904//EN"
 "http://www.w3.org/TR/2001/REC-SVG-20010904/DTD/svg10.dtd">
<svg version="1.0" xmlns="http://www.w3.org/2000/svg"
 width="1372.000000pt" height="1843.000000pt" viewBox="0 0 1372.000000 1843.000000"
 preserveAspectRatio="xMidYMid meet">

<g transform="translate(0.000000,1843.000000) scale(0.100000,-0.100000)"
fill="#000000" stroke="none">
<path d="M7320 18409 c-708 -73 -1331 -368 -1830 -869 -564 -565 -895 -1307
-951 -2131 -24 -361 41 -797 156 -1046 19 -42 35 -77 35 -78 0 -1 -22 -16 -50
-34 -77 -50 -156 -145 -205 -246 -59 -122 -79 -225 -72 -369 7 -132 29 -215
93 -345 62 -127 179 -247 299 -309 153 -78 344 -117 547 -110 l107 3 32 -75
c112 -259 375 -737 519 -943 65 -92 190 -226 265 -284 l40 -30 -1 -114 c-2
-189 -39 -356 -114 -517 l-39 -83 -79 50 c-98 61 -220 123 -231 117 -4 -3 -15
4 -24 15 -9 10 -26 19 -36 19 -11 0 -82 -55 -158 -122 -161 -142 -258 -220
-364 -295 -89 -62 -114 -102 -106 -169 5 -49 14 -42 -113 -85 -119 -41 -284
-74 -547 -109 -314 -42 -442 -65 -629 -110 -611 -147 -1074 -388 -1392 -724
-393 -416 -769 -1068 -1106 -1917 -470 -1188 -761 -2324 -971 -3794 -66 -456
-70 -630 -16 -696 17 -21 17 -26 -1 -103 -52 -222 -108 -620 -128 -908 -16
-226 -8 -769 13 -898 62 -371 209 -586 502 -730 112 -55 234 -93 375 -117 127
-21 390 -21 532 1 240 37 528 124 832 251 87 36 160 64 161 63 2 -2 -20 -88
-48 -193 -59 -221 -64 -280 -27 -320 62 -67 137 -68 196 -2 l37 40 -7 91 c-4
50 -11 153 -16 228 -5 76 -12 155 -15 175 l-6 38 153 69 c469 212 1154 568
1673 869 392 228 1021 631 1116 716 104 93 139 169 105 231 -12 21 -11 29 5
59 10 20 19 41 19 47 0 17 224 119 347 157 113 36 270 73 623 148 455 96 713
195 925 354 92 68 156 133 296 295 63 73 141 155 174 182 53 43 168 108 192
108 5 0 24 -46 42 -103 90 -277 229 -440 438 -512 128 -45 199 -52 819 -86
489 -27 623 9 840 226 131 131 204 237 313 455 152 306 240 605 288 985 22
175 25 629 5 815 -16 144 -57 414 -72 471 -13 48 -24 53 -175 96 -647 181
-1291 218 -1839 107 -65 -13 -122 -24 -126 -24 -4 0 -10 18 -13 40 -7 51 -29
85 -70 111 -48 29 -562 196 -643 208 -72 11 -150 4 -208 -19 -91 -35 -269
-208 -353 -342 -22 -36 -43 -58 -54 -58 -10 0 -24 -8 -31 -18 -7 -10 -62 -35
-123 -56 -259 -88 -477 -218 -641 -381 -146 -145 -232 -265 -483 -669 -212
-340 -401 -559 -568 -659 l-82 -49 -33 25 c-57 42 -140 59 -193 38 -13 -5 -30
0 -53 16 -19 12 -47 23 -61 23 -14 0 -148 -67 -301 -151 -317 -173 -903 -466
-1199 -599 -185 -84 -638 -280 -645 -280 -2 0 -8 18 -15 39 -13 45 -56 85 -83
78 -10 -3 -18 -3 -18 -1 0 2 18 31 39 64 22 33 53 99 71 147 51 143 68 277 85
667 8 193 22 484 30 646 8 162 17 420 21 572 7 256 6 278 -10 284 -9 4 -19 4
-22 1 -23 -23 -154 -1176 -184 -1622 -19 -276 -39 -380 -101 -513 -30 -66 -54
-99 -115 -160 -42 -42 -80 -88 -85 -101 -7 -18 -14 -22 -32 -17 -12 3 -155 31
-317 61 -298 56 -468 73 -477 49 -6 -16 119 -66 272 -109 72 -20 225 -67 340
-104 116 -38 234 -74 263 -82 38 -9 48 -15 37 -21 -8 -5 -151 -62 -317 -127
-416 -163 -530 -211 -525 -225 6 -17 66 -9 247 35 761 183 1853 616 2780 1103
140 74 256 133 258 131 2 -2 -8 -83 -22 -181 -94 -654 -93 -888 5 -1158 35
-98 85 -184 149 -258 38 -44 44 -57 41 -90 -2 -26 3 -46 14 -58 15 -17 -1 -29
-322 -243 -676 -449 -1270 -797 -1913 -1121 -1006 -507 -1460 -665 -1905 -666
-262 0 -465 54 -621 166 -138 98 -224 257 -263 489 -35 200 -54 737 -41 1132
8 232 35 664 43 668 1 1 20 8 42 16 23 9 49 28 62 47 32 48 61 188 83 400 118
1119 371 2241 770 3417 179 527 345 937 530 1310 137 277 237 451 395 690 304
459 529 657 1010 891 298 145 471 204 990 338 400 103 570 164 745 266 86 50
67 59 243 -110 131 -126 206 -210 436 -489 251 -304 446 -476 672 -590 114
-58 200 -88 484 -171 77 -22 186 -63 242 -89 93 -45 103 -48 122 -35 29 20 26
48 -8 97 -87 127 -251 230 -511 322 -143 51 -298 131 -401 209 -122 92 -241
222 -488 530 -119 149 -264 320 -322 381 l-107 110 61 65 c86 93 168 205 233
321 l57 101 25 -34 c66 -86 273 -253 464 -374 195 -122 515 -266 709 -319 139
-37 150 -90 97 -455 -29 -198 -29 -353 -1 -445 41 -131 98 -207 285 -380 129
-119 174 -177 240 -308 l49 -98 3 -167 c5 -260 37 -392 202 -845 52 -143 119
-348 150 -456 64 -228 119 -356 159 -371 70 -27 106 41 106 195 0 108 -25 211
-113 465 -252 729 -263 771 -262 1015 2 233 38 338 185 535 39 52 80 115 91
140 42 98 33 197 -28 291 -39 62 -43 99 -13 141 12 17 108 86 213 155 285 187
425 303 614 506 135 146 324 398 309 413 -3 3 -43 -26 -89 -66 -219 -190 -569
-431 -857 -590 -290 -160 -400 -258 -443 -392 -26 -85 -18 -148 33 -246 21
-41 39 -86 39 -100 0 -14 -29 -63 -70 -119 -39 -53 -85 -120 -103 -149 -17
-30 -34 -54 -37 -54 -3 1 -21 23 -40 51 -19 27 -108 119 -197 205 -145 139
-167 164 -200 232 -36 73 -38 80 -37 171 1 56 12 157 27 241 35 192 42 280 28
367 -19 125 -69 208 -155 258 -22 13 -113 45 -201 70 -185 54 -365 122 -553
211 l-133 63 27 52 c87 173 142 378 151 572 l6 127 36 0 c47 1 112 31 139 65
77 98 34 215 -94 259 -161 56 -247 127 -374 306 -209 298 -344 464 -545 670
l-142 145 13 30 c18 41 17 80 -3 122 -23 50 -77 72 -173 73 -112 0 -288 18
-350 36 -185 53 -307 191 -347 393 -46 230 56 438 260 535 99 47 164 60 287
60 128 -1 216 -21 327 -74 45 -22 84 -40 87 -40 14 0 4 29 -24 73 -16 26 -30
49 -30 51 0 9 190 -38 242 -59 32 -13 88 -44 126 -69 73 -50 112 -57 150 -30
13 9 27 27 32 40 11 29 -1 180 -40 494 -46 373 -54 501 -55 890 0 391 3 423
50 478 32 38 47 40 300 52 330 15 464 41 524 101 64 64 50 139 -46 241 -133
142 -175 328 -104 466 65 127 287 236 601 294 167 32 623 32 885 0 99 -12 272
-32 385 -46 312 -37 496 -49 715 -44 186 4 205 6 275 31 41 15 118 38 170 52
l95 25 16 -21 c9 -12 43 -67 77 -123 296 -493 489 -1065 566 -1676 31 -247 40
-431 40 -825 -1 -792 -52 -1283 -187 -1805 -224 -870 -766 -1467 -1467 -1617
-68 -14 -130 -18 -315 -18 -272 1 -354 13 -645 99 -240 70 -283 79 -337 73
-75 -8 -132 -81 -119 -151 17 -89 178 -171 496 -251 287 -72 573 -103 793 -84
73 6 141 12 153 12 14 1 37 -18 72 -60 74 -89 116 -118 168 -118 33 0 49 6 73
29 57 54 50 93 -27 162 l-46 40 100 33 c462 153 878 512 1164 1003 186 322
330 768 399 1243 81 558 101 1425 46 2010 -65 694 -222 1219 -476 1601 -82
122 -286 335 -401 419 -38 27 -68 52 -68 57 0 4 11 8 25 8 17 0 42 16 75 48
46 45 50 53 50 96 0 26 -6 59 -14 74 -20 39 -255 265 -374 360 -482 384 -1094
626 -1751 692 -121 12 -529 11 -651 -1z m1088 -12030 c111 -39 219 -77 239
-85 l36 -15 -37 -38 -38 -38 -66 34 c-103 52 -189 66 -367 59 -82 -3 -199 -14
-260 -26 -60 -11 -111 -20 -113 -20 -1 0 20 20 47 45 141 125 229 170 311 160
25 -3 136 -37 248 -76z m1292 -119 c241 -14 449 -41 692 -90 186 -38 514 -124
531 -140 12 -11 45 -283 58 -485 44 -675 -107 -1328 -412 -1785 -79 -118 -235
-278 -307 -314 -104 -52 -155 -59 -397 -53 -325 9 -760 36 -838 52 -141 29
-238 106 -302 240 -29 61 -90 245 -83 250 2 1 27 15 56 30 71 39 156 131 176
193 9 26 23 88 31 138 20 125 27 144 89 253 70 122 86 168 86 246 0 73 -17
128 -60 190 l-31 45 20 54 c52 140 48 263 -14 394 -40 85 -114 165 -199 212
-38 22 -55 37 -52 47 3 7 11 43 18 78 13 75 0 172 -33 236 l-19 39 27 6 c71
17 147 78 175 140 10 22 17 24 107 27 232 7 510 6 681 -3z m-1269 -222 c81
-37 104 -74 104 -164 0 -86 -15 -108 -78 -118 -23 -4 -51 -16 -63 -27 -16 -15
-53 -24 -160 -39 -204 -29 -312 -62 -396 -122 -32 -22 -34 -31 -12 -52 18 -19
106 -21 229 -6 110 13 200 14 415 7 102 -4 188 -7 193 -7 21 0 97 -87 118
-133 34 -77 33 -183 -4 -254 -22 -42 -32 -53 -52 -53 -64 0 -538 -74 -614 -96
-225 -65 -94 -93 353 -76 236 9 249 9 267 -9 22 -22 61 -33 90 -26 16 4 24 -2
36 -31 20 -48 7 -90 -63 -200 -29 -47 -60 -106 -69 -131 -15 -46 -16 -46 -54
-43 -39 4 -231 -18 -344 -40 -114 -21 -77 -41 132 -69 79 -10 163 -19 188 -19
l45 0 -7 -42 c-10 -61 -34 -98 -86 -134 -43 -29 -70 -39 -269 -98 -163 -49
-263 -127 -480 -376 -67 -77 -156 -167 -196 -200 -208 -167 -446 -256 -984
-370 -387 -82 -618 -153 -814 -250 l-118 -60 -28 20 c-62 44 -144 146 -181
225 -74 160 -87 294 -81 848 l4 347 31 0 c58 0 155 22 174 39 10 10 50 27 88
39 162 49 363 169 489 291 103 100 191 218 348 469 279 443 448 625 708 761
218 114 478 188 790 225 19 2 94 3 165 2 116 -2 136 -4 186 -28z"/>
<path d="M7088 5294 c-5 -4 -5 -37 -2 -73 5 -52 2 -83 -16 -146 -36 -127 -22
-193 75 -364 22 -39 25 -56 25 -146 0 -62 6 -121 15 -153 19 -64 76 -126 127
-140 43 -12 103 -1 127 23 19 19 20 92 3 215 -7 47 -17 113 -22 148 -8 62 -46
151 -109 257 -22 37 -34 77 -46 150 -18 111 -40 169 -77 203 -26 23 -87 40
-100 26z"/>
<path d="M9490 15296 c-183 -53 -225 -198 -80 -277 18 -10 72 -14 205 -15 206
-1 246 -8 472 -85 182 -63 213 -64 213 -6 0 91 -121 218 -282 296 -57 28 -139
60 -183 71 -100 27 -280 35 -345 16z"/>
<path d="M8245 15224 c-16 -2 -66 -9 -110 -15 -110 -15 -399 -89 -520 -134
-55 -20 -129 -52 -164 -72 -96 -52 -241 -156 -238 -172 2 -15 105 -23 110 -8
1 4 49 14 107 22 58 7 177 27 265 44 169 32 286 46 475 56 165 9 278 24 312
41 38 19 62 76 55 127 -6 45 -29 74 -73 93 -33 14 -168 25 -219 18z"/>
<path d="M9991 14514 c-18 -15 -35 -42 -42 -67 -7 -26 -27 -58 -54 -84 -38
-39 -47 -43 -91 -43 -69 0 -118 32 -174 110 -39 54 -51 65 -75 65 -23 0 -33
-8 -52 -45 -39 -72 -14 -149 75 -232 132 -124 289 -140 428 -45 100 68 175
211 153 291 -21 75 -108 101 -168 50z"/>
<path d="M8195 14432 c-44 -27 -50 -39 -74 -127 -38 -137 -89 -201 -171 -212
-88 -12 -258 108 -313 221 -15 30 -27 63 -27 73 0 49 -78 61 -106 18 -20 -31
-14 -119 12 -187 60 -151 231 -311 362 -339 156 -32 301 32 393 174 56 86 122
261 115 302 -15 77 -121 119 -191 77z"/>
<path d="M4987 13826 c-70 -19 -101 -53 -101 -112 -1 -29 4 -49 12 -51 7 -3
12 4 12 14 0 11 11 30 25 43 39 37 98 25 259 -53 75 -37 138 -67 141 -67 3 0
58 -25 121 -56 94 -45 122 -55 148 -50 82 15 127 140 74 200 -18 20 -52 33
-163 61 -298 76 -441 96 -528 71z"/>
<path d="M9323 10765 c-9 -24 77 -191 147 -285 81 -108 237 -267 272 -275 39
-10 93 20 113 62 32 66 14 94 -137 213 -73 58 -164 132 -203 166 -88 76 -164
134 -176 134 -5 0 -12 -7 -16 -15z"/>
<path d="M9663 10124 c-46 -23 -58 -48 -93 -181 -38 -142 -103 -280 -231 -483
-209 -334 -322 -469 -436 -523 -64 -30 -75 -32 -178 -32 -109 0 -111 0 -185
39 -154 81 -169 88 -208 93 -26 3 -51 -1 -76 -12 -43 -21 -42 -41 1 -37 41 4
94 -24 173 -93 108 -95 197 -128 345 -129 174 -1 320 72 464 233 260 290 421
539 532 821 40 102 36 95 51 83 7 -6 60 -29 118 -53 302 -122 648 -286 826
-391 637 -375 1002 -842 1278 -1638 147 -421 300 -1126 666 -3061 77 -410 186
-981 240 -1270 115 -607 129 -692 170 -1010 100 -795 121 -1454 70 -2183 -12
-171 -5 -197 66 -229 85 -37 163 -7 183 71 14 54 39 274 52 466 15 215 6 783
-16 1030 -65 744 -206 1595 -489 2966 -63 305 -187 919 -276 1364 -279 1398
-323 1590 -457 1979 -276 804 -729 1364 -1338 1652 -255 120 -633 243 -1017
330 l-77 17 2 68 c2 62 -1 71 -24 94 -33 34 -92 42 -136 19z"/>
<path d="M5755 6285 c-313 -73 -889 -167 -1409 -230 -190 -23 -301 -42 -381
-63 -20 -6 -30 -15 -30 -28 0 -28 79 -37 275 -30 314 10 808 67 1303 151 346
58 403 75 421 128 9 23 6 31 -14 52 -32 31 -88 38 -165 20z"/>
<path d="M11754 5554 c-198 -309 -347 -759 -424 -1284 -111 -761 -144 -2042
-80 -3195 18 -324 41 -491 90 -649 28 -91 60 -269 60 -333 0 -16 7 -39 16 -51
17 -24 58 -30 71 -9 4 6 8 86 8 177 1 120 6 191 20 260 24 118 25 312 7 870
-20 632 -32 1756 -22 2130 20 722 82 1173 271 1959 45 188 41 216 -17 125z"/>
<path d="M8271 3226 c-6 -8 -18 -45 -25 -82 -15 -73 -18 -114 -41 -609 -22
-466 -33 -643 -66 -1070 -41 -524 -32 -714 36 -772 56 -48 101 -23 143 80 66
156 87 332 104 864 16 502 -9 1189 -53 1453 -20 122 -62 180 -98 136z"/>
<path d="M1625 3158 c-58 -21 -121 -73 -265 -217 -198 -199 -390 -441 -460
-579 -41 -81 -48 -130 -24 -159 27 -31 56 -34 59 -6 1 12 14 39 30 60 58 77
514 522 633 617 138 110 177 158 177 218 0 68 -64 96 -150 66z"/>
</g>
</svg>
